<svg width="13" height="12" viewBox="0 0 13 12" fill="none" xmlns="http://www.w3.org/2000/svg">
<path d="M8.66112 6.47708C8.46292 6.64114 8.29331 6.82429 8.15229 7.02651C7.83593 6.86626 7.50624 6.74798 7.1632 6.67167C6.82017 6.59536 6.46951 6.5553 6.11123 6.55148C5.69958 6.55148 5.307 6.60299 4.93347 6.70601C4.55994 6.80902 4.20929 6.95401 3.8815 7.14097C3.55371 7.32793 3.26022 7.55495 3.00104 7.82203C2.74186 8.08911 2.51507 8.38481 2.32069 8.70913C2.1263 9.03344 1.98146 9.38637 1.88617 9.76792C1.79089 10.1495 1.73943 10.5425 1.73181 10.9469H1C1 10.3898 1.08195 9.85377 1.24584 9.33868C1.40974 8.82359 1.64605 8.35238 1.95478 7.92505C2.26351 7.49772 2.63132 7.1238 3.05821 6.8033C3.4851 6.4828 3.96916 6.2367 4.51039 6.06501C4.30457 5.92765 4.12162 5.76931 3.96154 5.58998C3.80146 5.41065 3.66424 5.21607 3.5499 5.00621C3.43555 4.79636 3.34789 4.57507 3.2869 4.34232C3.22592 4.10958 3.19543 3.8692 3.19543 3.6212C3.19543 3.21676 3.27166 2.83712 3.42412 2.48228C3.57658 2.12744 3.78621 1.81839 4.05301 1.55512C4.31982 1.29185 4.63046 1.082 4.98493 0.925569C5.3394 0.769135 5.71864 0.690918 6.12266 0.690918C6.52668 0.690918 6.90593 0.767227 7.26039 0.919846C7.61486 1.07246 7.9236 1.28232 8.18659 1.5494C8.44958 1.81648 8.65922 2.12744 8.81549 2.48228C8.97176 2.83712 9.0499 3.21676 9.0499 3.6212C9.0499 3.8692 9.0194 4.10958 8.95842 4.34232C8.89744 4.57507 8.81168 4.79827 8.70114 5.01194C8.59061 5.2256 8.45149 5.42019 8.28378 5.5957C8.11608 5.77122 7.93122 5.92956 7.72921 6.07073C7.8931 6.12415 8.05128 6.18329 8.20374 6.24815C8.3562 6.31301 8.50866 6.38932 8.66112 6.47708ZM3.92723 3.6212C3.92723 3.92644 3.98441 4.21069 4.09875 4.47396C4.2131 4.73722 4.36937 4.96997 4.56757 5.17219C4.76577 5.37441 4.99827 5.53275 5.26507 5.64721C5.53188 5.76168 5.81774 5.81891 6.12266 5.81891C6.42377 5.81891 6.70773 5.76168 6.97453 5.64721C7.24134 5.53275 7.47384 5.37632 7.67204 5.17791C7.87024 4.97951 8.02841 4.74676 8.14657 4.47968C8.26473 4.2126 8.3219 3.92644 8.31809 3.6212C8.31809 3.31978 8.26091 3.03552 8.14657 2.76844C8.03222 2.50136 7.87595 2.26861 7.67775 2.07021C7.47956 1.87181 7.24515 1.71346 6.97453 1.59518C6.70392 1.4769 6.41996 1.41967 6.12266 1.42349C5.81774 1.42349 5.53378 1.48072 5.27079 1.59518C5.0078 1.70965 4.77529 1.86608 4.57328 2.06449C4.37128 2.26289 4.2131 2.49754 4.09875 2.76844C3.98441 3.03934 3.92723 3.32359 3.92723 3.6212ZM10.159 6.54576C10.4106 6.54576 10.6488 6.59345 10.8737 6.68884C11.0986 6.78422 11.293 6.91586 11.4569 7.08374C11.6208 7.25162 11.7523 7.44621 11.8514 7.6675C11.9505 7.8888 12 8.12727 12 8.38291C12 8.63473 11.9524 8.87129 11.8571 9.09258C11.7618 9.31388 11.6303 9.50847 11.4626 9.67635C11.2949 9.84423 11.0986 9.97586 10.8737 10.0713C10.6488 10.1666 10.4106 10.2162 10.159 10.2201C9.78933 10.2201 9.45201 10.117 9.14709 9.911L7.47765 11.5822C7.40523 11.6547 7.31947 11.6909 7.22037 11.6909C7.12128 11.6909 7.03552 11.6547 6.9631 11.5822C6.89068 11.5097 6.85447 11.4238 6.85447 11.3246C6.85447 11.2254 6.89068 11.1396 6.9631 11.0671L8.63254 9.39591C8.42672 9.09068 8.3238 8.75301 8.3238 8.38291C8.3238 8.13108 8.37145 7.89453 8.46674 7.67323C8.56202 7.45193 8.69352 7.25734 8.86123 7.08946C9.02893 6.92158 9.22332 6.78995 9.44439 6.69456C9.66545 6.59917 9.90367 6.54957 10.159 6.54576ZM10.159 9.48748C10.3115 9.48748 10.4544 9.45887 10.5878 9.40164C10.7212 9.3444 10.8375 9.26619 10.9366 9.16698C11.0357 9.06778 11.1157 8.9495 11.1767 8.81215C11.2377 8.67479 11.2682 8.53171 11.2682 8.38291C11.2682 8.23029 11.2396 8.08721 11.1824 7.95367C11.1253 7.82012 11.0452 7.70375 10.9423 7.60455C10.8394 7.50535 10.7231 7.42522 10.5936 7.36417C10.464 7.30313 10.3191 7.27451 10.159 7.27833C10.0066 7.27833 9.86365 7.30694 9.73025 7.36417C9.59685 7.42141 9.4806 7.50153 9.3815 7.60455C9.2824 7.70757 9.20236 7.82394 9.14137 7.95367C9.08039 8.08339 9.0518 8.22647 9.05561 8.38291C9.05561 8.53552 9.0842 8.6786 9.14137 8.81215C9.19854 8.94569 9.27668 9.06206 9.37578 9.16126C9.47488 9.26046 9.59304 9.34059 9.73025 9.40164C9.86746 9.46268 10.0104 9.4913 10.159 9.48748Z" fill="#040415" stroke="#040415" stroke-width="0.1"/>
</svg>
