<svg width="10" height="10" viewBox="0 0 10 10" fill="none" xmlns="http://www.w3.org/2000/svg">
<path d="M0 8.33333H4.16667V9.16667H0V8.33333ZM0 5.83333H4.16667V6.66667H0V5.83333ZM9.16667 4.16667H0.833333C0.61232 4.16667 0.400358 4.07887 0.244078 3.92259C0.0877973 3.76631 0 3.55435 0 3.33333V0.833333C0 0.61232 0.0877973 0.400358 0.244078 0.244078C0.400358 0.0877973 0.61232 0 0.833333 0H9.16667C9.38768 0 9.59964 0.0877973 9.75592 0.244078C9.9122 0.400358 10 0.61232 10 0.833333V3.33333C10 3.55435 9.9122 3.76631 9.75592 3.92259C9.59964 4.07887 9.38768 4.16667 9.16667 4.16667ZM0.833333 0.833333V3.33333H9.16667V0.833333H0.833333ZM9.16667 10H6.66667C6.44565 10 6.23369 9.9122 6.07741 9.75592C5.92113 9.59964 5.83333 9.38768 5.83333 9.16667V6.66667C5.83333 6.44565 5.92113 6.23369 6.07741 6.07741C6.23369 5.92113 6.44565 5.83333 6.66667 5.83333H9.16667C9.38768 5.83333 9.59964 5.92113 9.75592 6.07741C9.9122 6.23369 10 6.44565 10 6.66667V9.16667C10 9.38768 9.9122 9.59964 9.75592 9.75592C9.59964 9.9122 9.38768 10 9.16667 10ZM6.66667 6.66667V9.16667H9.16667V6.66667H6.66667Z" fill="#040415"/>
</svg>
