<svg width="6" height="9" viewBox="0 0 6 9" fill="none" xmlns="http://www.w3.org/2000/svg">
<path d="M0.759937 1.12582C0.69735 1.18827 0.647696 1.26246 0.613817 1.34414C0.579939 1.42581 0.5625 1.51336 0.5625 1.60178C0.5625 1.6902 0.579939 1.77775 0.613817 1.85942C0.647696 1.9411 0.69735 2.01528 0.759937 2.07774L3.37942 4.69723L0.759937 7.31672C0.633703 7.44295 0.562786 7.61416 0.562786 7.79268C0.562786 7.9712 0.633703 8.14241 0.759937 8.26864C0.88617 8.39488 1.05738 8.46579 1.2359 8.46579C1.41442 8.46579 1.58563 8.39488 1.71186 8.26864L4.81069 5.16982C4.87328 5.10736 4.92293 5.03317 4.95681 4.9515C4.99069 4.86983 5.00812 4.78227 5.00812 4.69385C5.00812 4.60543 4.99069 4.51788 4.95681 4.43621C4.92293 4.35454 4.87328 4.28035 4.81069 4.21789L1.71186 1.11907C1.45532 0.862518 1.02324 0.862518 0.759937 1.12582Z" fill="#6C6C6C"/>
</svg>
