<svg width="10" height="11" viewBox="0 0 10 11" fill="none" xmlns="http://www.w3.org/2000/svg">
<path d="M7.0128 8.03955C6.90848 7.91918 6.85632 7.7827 6.85632 7.63011C6.85632 7.47751 6.90848 7.35011 7.0128 7.24788L8.06543 6.22011H3.98293C3.82171 6.22011 3.68648 6.16677 3.57724 6.06011C3.46799 5.95344 3.41356 5.82159 3.41394 5.66455C3.41394 5.50714 3.46856 5.37511 3.57781 5.26844C3.68705 5.16177 3.82209 5.10862 3.98293 5.109H8.06543L7.0128 4.08122C6.899 3.97011 6.8421 3.83807 6.8421 3.68511C6.8421 3.53214 6.899 3.40029 7.0128 3.28955C7.11711 3.17844 7.2476 3.12288 7.40426 3.12288C7.56092 3.12288 7.69122 3.17381 7.79516 3.27566L9.84352 5.27566C9.90042 5.33122 9.94082 5.3914 9.96471 5.45622C9.98861 5.52103 10.0004 5.59048 9.99999 5.66455C9.99999 5.73862 9.98823 5.80807 9.96471 5.87288C9.9412 5.9377 9.9008 5.99788 9.84352 6.05344L7.79516 8.05344C7.67188 8.17381 7.53665 8.22714 7.38947 8.21344C7.24229 8.19973 7.11673 8.14177 7.0128 8.03955ZM1.13798 10.6645C0.825036 10.6645 0.557042 10.5557 0.333998 10.3379C0.110954 10.1201 -0.00037836 9.85862 9.66027e-07 9.55344V1.77566C9.66027e-07 1.47011 0.111523 1.20844 0.334567 0.990663C0.557611 0.772885 0.825415 0.664181 1.13798 0.664552H4.55192C4.71313 0.664552 4.84836 0.717885 4.95761 0.824552C5.06685 0.931218 5.12129 1.06307 5.12091 1.22011C5.12091 1.37751 5.06628 1.50955 4.95704 1.61622C4.84779 1.72288 4.71275 1.77603 4.55192 1.77566H1.13798V9.55344H4.55192C4.71313 9.55344 4.84836 9.60677 4.95761 9.71344C5.06685 9.8201 5.12129 9.95196 5.12091 10.109C5.12091 10.2664 5.06628 10.3984 4.95704 10.5051C4.84779 10.6118 4.71275 10.6649 4.55192 10.6645H1.13798Z" fill="#882190"/>
</svg>
