<svg width="12" height="13" viewBox="0 0 12 13" fill="none" xmlns="http://www.w3.org/2000/svg">
<path d="M5.48932 1.24751C5.69798 1.08731 5.95749 1 6.225 1C6.49251 1 6.75202 1.08731 6.96068 1.24751L11.0101 4.35665C11.1474 4.46212 11.2583 4.59578 11.3344 4.74776C11.4106 4.89974 11.4501 5.06615 11.45 5.23469V10.8749C11.45 11.1733 11.3261 11.4595 11.1057 11.6705C10.8852 11.8815 10.5862 12 10.2744 12H8.70687C8.39508 12 8.09605 11.8815 7.87558 11.6705C7.65511 11.4595 7.53125 11.1733 7.53125 10.8749V7.87481C7.53125 7.77535 7.48996 7.67996 7.41647 7.60963C7.34298 7.53931 7.24331 7.49979 7.13937 7.49979H5.31062C5.20669 7.49979 5.10702 7.53931 5.03353 7.60963C4.96004 7.67996 4.91875 7.77535 4.91875 7.87481V10.8749C4.91875 11.1733 4.79489 11.4595 4.57442 11.6705C4.35394 11.8815 4.05492 12 3.74312 12H2.17562C1.86383 12 1.56481 11.8815 1.34433 11.6705C1.12386 11.4595 1 11.1733 1 10.8749V5.23469C1 4.89368 1.16197 4.57066 1.43994 4.35715L5.48932 1.24751ZM6.47005 1.83254C6.40053 1.77922 6.31409 1.75017 6.225 1.75017C6.13591 1.75017 6.04947 1.77922 5.97995 1.83254L1.93057 4.94168C1.88477 4.9768 1.8478 5.02132 1.82239 5.07195C1.79698 5.12258 1.78377 5.17802 1.78375 5.23419V10.8744C1.78375 11.082 1.95931 11.2495 2.17562 11.2495H3.74312C3.84706 11.2495 3.94673 11.21 4.02022 11.1396C4.09371 11.0693 4.135 10.9739 4.135 10.8744V7.87431C4.135 7.57593 4.25886 7.28977 4.47933 7.07878C4.6998 6.86779 4.99883 6.74926 5.31062 6.74926H7.13937C7.2938 6.74926 7.44672 6.77838 7.58939 6.83495C7.73206 6.89152 7.86168 6.97443 7.97085 7.07896C8.08003 7.18348 8.16661 7.30756 8.22566 7.44412C8.28471 7.58067 8.31507 7.72703 8.315 7.87481V10.8749C8.315 11.0825 8.49056 11.25 8.70687 11.25H10.2744C10.3783 11.25 10.478 11.2105 10.5515 11.1401C10.625 11.0698 10.6662 10.9744 10.6662 10.8749V5.23469C10.6663 5.17856 10.6532 5.12315 10.6278 5.07252C10.6025 5.02189 10.5657 4.97735 10.5199 4.94218L6.47005 1.83254Z" fill="#040415" stroke="#040415" stroke-width="0.11"/>
</svg>
