<svg width="11" height="12" viewBox="0 0 11 12" fill="none" xmlns="http://www.w3.org/2000/svg">
<path d="M3.38832 0.419106L2.85978 0.567648C2.38917 0.700049 1.96889 0.955113 1.64841 1.30282C1.32794 1.65053 1.1206 2.07641 1.05081 2.53033C0.831878 3.95248 1.32135 5.61533 2.50153 7.52231C3.67876 9.42447 4.97467 10.6499 6.40106 11.1863C6.85936 11.3587 7.36107 11.4046 7.84654 11.3186C8.332 11.2327 8.7808 11.0185 9.13957 10.7015L9.53911 10.348C9.79855 10.119 9.96001 9.80983 9.9935 9.47806C10.027 9.14628 9.93023 8.81444 9.72118 8.54422L8.72161 7.25136C8.58647 7.07681 8.39617 6.9461 8.17739 6.87753C7.95861 6.80896 7.72231 6.80598 7.50162 6.869L5.98972 7.30018L5.95066 7.30706C5.78406 7.32975 5.39927 6.99347 4.92012 6.21913C4.41886 5.40902 4.31565 4.9352 4.4535 4.81279L5.22235 4.14366C5.50351 3.89916 5.69557 3.57868 5.77158 3.22718C5.8476 2.87569 5.80376 2.5108 5.64621 2.18373L5.15822 1.17213C5.01148 0.867719 4.75109 0.623473 4.42558 0.484926C4.10008 0.34638 3.73168 0.322985 3.38906 0.419106H3.38832ZM4.48667 1.45409L4.97319 2.46569C5.06794 2.66184 5.09444 2.88076 5.04896 3.09168C5.00347 3.3026 4.8883 3.49493 4.71961 3.64164L3.94855 4.31146C3.4554 4.74746 3.61905 5.49154 4.28248 6.56297C4.90611 7.57113 5.47519 8.06902 6.08703 7.98238L6.17844 7.9645L7.71761 7.52643C7.79118 7.50535 7.86998 7.50628 7.94296 7.5291C8.01593 7.55192 8.07942 7.59547 8.12451 7.65366L9.12409 8.94652C9.22876 9.08162 9.27727 9.24759 9.26059 9.41355C9.24391 9.57952 9.16318 9.73418 9.03342 9.84878L8.63315 10.2023C8.37688 10.4285 8.05636 10.5814 7.70968 10.6427C7.36301 10.704 7.00476 10.6712 6.67749 10.5482C5.4258 10.0778 4.24268 8.9589 3.14064 7.17846C2.03565 5.39389 1.5882 3.87615 1.78059 2.62798C1.8304 2.30369 1.97848 1.99942 2.20742 1.751C2.43635 1.50258 2.7366 1.32035 3.07282 1.22577L3.60136 1.07723C3.77271 1.02919 3.95695 1.04094 4.1197 1.11028C4.28246 1.17962 4.41263 1.30182 4.48594 1.45409H4.48667Z" fill="#040415" stroke="#040415" stroke-width="0.1"/>
</svg>
